<?xml version="1.0" encoding="UTF-8"?>
<svg id="Layer_1" data-name="Layer 1" xmlns="http://www.w3.org/2000/svg" viewBox="0 0 1131.146 752">
  <defs>
    <style>
      .cls-1 {
        fill: #010101;
      }

      .cls-2 {
        fill: #26af98;
      }
    </style>
  </defs>
  <g>
    <path class="cls-1" d="M488.498,12.284v39.5h-16.159l.005,96.949,26.349-15.386c104.854-50.431,240.991,22.425,244.761,141.51.04,1.256,2.021,6.743-.453,6.743h-75.857c-1.928-26.456-11.605-51.575-31.407-69.586-61.335-55.785-158.196-15.109-163.435,67.304l.038,118.088h15.71c.095,0,1.347,1.251,1.347,1.347v36.806c0,.095-1.251,1.347-1.347,1.347h-116.703c-.095,0-1.347-1.251-1.347-1.347v-36.806c0-.095,1.251-1.347,1.347-1.347h15.261c.095,0,1.347-1.251,1.347-1.347V54.028c0-.297-1.189-1.363-.898-2.244h-15.71c-.095,0-1.347-1.251-1.347-1.347V13.631c0-.095,1.251-1.347,1.347-1.347h117.152Z"/>
    <path class="cls-2" d="M758.711,13.182v37.255c0,.095-1.251,1.347-1.347,1.347h-15.71v155.305c-4.653-6.267-7.997-13.757-12.363-20.403-13.538-20.606-32.165-38.783-52.696-52.337-5.989-3.954-12.747-6.784-18.428-11.196V51.784h-17.057V13.182h117.601Z"/>
    <path class="cls-1" d="M719.587,318.928c22.554,25.944,51.181,63.218,26.93,97.254-21.799,30.595-71.283,25.557-86.721-8.287-17.596-38.575,22.316-76.469,44.269-103.728,1.096-.63,2.159.121,3.075.729,3.889,2.586,9.139,10.226,12.447,14.032Z"/>
  </g>
  <g>
    <path class="cls-1" d="M3.317,538.868h30.26v66.095h78.576v-66.095h30.261v160.632h-30.261v-71.623H33.577v71.623H3.317v-160.632Z"/>
    <path class="cls-1" d="M175.543,538.868h29.886v27.29h-29.886v-27.29ZM175.792,582.279h29.388v117.221h-29.388v-117.221Z"/>
    <path class="cls-1" d="M230.586,641.581c0-38.345,23.162-62.295,53.173-62.295,16.063,0,27.894,7.484,33.747,18.078v-59.647h29.264v161.783h-28.642v-16.236c-6.725,10.939-20.547,19.23-36.984,19.23-29.638,0-50.558-24.526-50.558-60.913ZM317.506,641.695v-1.612c0-22.339-11.581-37.884-28.393-37.884-18.181,0-28.766,15.776-28.766,39.036,0,22.915,10.336,38.345,28.641,38.345,17.061,0,28.518-15.43,28.518-37.884Z"/>
    <path class="cls-1" d="M379.401,582.279h28.143v18.655c6.351-14.164,17.31-21.303,31.63-21.303,4.234,0,8.344.346,11.207,1.151v24.987c-3.361-.691-7.471-1.266-11.58-1.266-19.427,0-30.012,10.824-30.012,27.865v67.132h-29.388v-117.221Z"/>
    <path class="cls-1" d="M461.964,640.89c0-36.272,23.286-61.605,60.146-61.605,37.108,0,60.271,25.563,60.271,61.605,0,36.386-23.411,61.604-60.146,61.604-36.984,0-60.271-25.563-60.271-61.604ZM552.62,640.89c0-22.224-11.207-38.691-30.509-38.691-19.551,0-30.385,17.043-30.385,38.691,0,21.878,10.834,38.69,30.385,38.69,19.675,0,30.509-16.581,30.509-38.69Z"/>
    <path class="cls-1" d="M598.077,644.574h29.887c1.245,22.224,15.939,34.66,39.974,34.66,20.298,0,33.995-8.981,33.995-23.835,0-17.733-19.675-21.418-44.456-27.751-26.648-7.024-55.041-16.466-55.041-47.787,0-31.09,28.019-43.987,61.144-43.987,38.354,0,61.641,16.812,63.384,50.551h-29.887c-1.369-19.46-14.444-27.291-34.12-27.291-15.441,0-30.26,5.182-30.26,19.806,0,15.545,16.936,19.576,39.226,25.218,37.856,9.442,60.271,20.727,60.271,49.975,0,33.969-31.008,48.362-64.007,48.362-43.709,0-69.112-21.993-70.109-57.919Z"/>
    <path class="cls-1" d="M755.858,744.868v-22.453c2.988.805,6.351,1.382,9.962,1.382,10.46,0,14.694-5.067,18.181-14.278l4.109-11.055-44.83-116.185h30.759l30.136,86.362,29.762-86.362h30.758l-51.305,134.148c-6.601,17.502-18.555,30.284-40.845,30.284-6.227,0-12.328-.691-16.687-1.842Z"/>
    <path class="cls-1" d="M884.374,582.279h28.268v16.811c6.475-12.551,21.045-19.805,35.739-19.805,26.15,0,42.712,16.121,42.712,44.908v75.307h-29.264v-69.665c0-18.654-9.09-27.636-23.411-27.636-14.569,0-24.656,10.364-24.656,28.787v68.514h-29.388v-117.221Z"/>
    <path class="cls-1" d="M1015.007,640.659c0-35.466,21.543-61.374,58.527-61.374,30.385,0,50.558,17.157,53.796,43.641h-29.015c-1.868-13.472-11.706-20.727-24.657-20.727-18.181,0-28.89,15.66-28.89,38.46,0,22.453,10.46,38.92,28.766,38.92,13.947,0,24.033-9.558,25.154-25.448h29.14c-2.366,28.902-22.789,48.362-54.543,48.362-35.366,0-58.278-25.102-58.278-61.834Z"/>
  </g>
</svg>