<?xml version="1.0" encoding="UTF-8"?>
<svg id="Layer_1" data-name="Layer 1" xmlns="http://www.w3.org/2000/svg" viewBox="0 0 752.379 752">
  <defs>
    <style>
      .cls-1 {
        fill: #010101;
      }

      .cls-2 {
        fill: #26af98;
      }
    </style>
  </defs>
  <path class="cls-1" d="M291.689,139.5v44h-18l.005,107.995,29.351-17.139c116.801-56.177,268.449,24.98,272.648,157.632.044,1.399,2.251,7.512-.504,7.512h-84.5c-2.148-29.47-12.927-57.451-34.986-77.514-68.324-62.141-176.22-16.831-182.056,74.972l.042,131.542h17.5c.106,0,1.5,1.394,1.5,1.5v41c0,.106-1.394,1.5-1.5,1.5h-130c-.106,0-1.5-1.394-1.5-1.5v-41c0-.106,1.394-1.5,1.5-1.5h17c.106,0,1.5-1.394,1.5-1.5V186c0-.331-1.325-1.518-1-2.5h-17.5c-.106,0-1.5-1.394-1.5-1.5v-41c0-.106,1.394-1.5,1.5-1.5h130.5Z"/>
  <path class="cls-2" d="M592.689,140.5v41.5c0,.106-1.394,1.5-1.5,1.5h-17.5v173c-5.183-6.981-8.908-15.324-13.772-22.728-15.081-22.954-35.83-43.202-58.7-58.3-6.671-4.404-14.199-7.557-20.528-12.472v-79.5h-19v-43h131Z"/>
  <path class="cls-1" d="M549.108,481.082c25.124,28.899,57.012,70.42,29.998,108.334-24.283,34.081-79.405,28.468-96.601-9.231-19.601-42.97,24.859-85.181,49.313-115.547,1.221-.701,2.405.134,3.425.813,4.332,2.88,10.18,11.392,13.866,15.631Z"/>
</svg>