<?xml version="1.0" encoding="UTF-8"?>
<svg id="Layer_1" data-name="Layer 1" xmlns="http://www.w3.org/2000/svg" viewBox="0 0 1380 752">
  <defs>
    <style>
      .cls-1 {
        fill: #010101;
      }

      .cls-2 {
        fill: #1f3b3f;
      }

      .cls-3 {
        fill: #26af98;
      }
    </style>
  </defs>
  <g>
    <path class="cls-1" d="M632.358,99.623v30.015h-12.279l.004,73.669,20.022-11.691c79.676-38.321,183.122,17.04,185.987,107.529.03.955,1.536,5.124-.344,5.124h-57.642c-1.465-20.103-8.818-39.19-23.866-52.876-46.607-42.39-120.208-11.481-124.19,51.142l.029,89.731h11.938c.072,0,1.023.951,1.023,1.023v27.968c0,.072-.951,1.023-1.023,1.023h-88.68c-.072,0-1.023-.951-1.023-1.023v-27.968c0-.072.951-1.023,1.023-1.023h11.597c.072,0,1.023-.951,1.023-1.023V131.343c0-.226-.904-1.036-.682-1.705h-11.938c-.072,0-1.023-.951-1.023-1.023v-27.968c0-.072.951-1.023,1.023-1.023h89.021Z"/>
    <path class="cls-3" d="M837.686,100.305v28.309c0,.072-.951,1.023-1.023,1.023h-11.938v118.012c-3.536-4.762-6.076-10.453-9.395-15.504-10.288-15.658-24.441-29.47-40.042-39.769-4.551-3.004-9.686-5.155-14.003-8.508v-54.231h-12.961v-29.332h89.362Z"/>
    <path class="cls-1" d="M807.956,332.633c17.138,19.714,38.891,48.037,20.463,73.9-16.565,23.248-54.166,19.42-65.896-6.297-13.371-29.312,16.957-58.106,33.639-78.82.833-.478,1.641.092,2.336.554,2.955,1.965,6.944,7.771,9.458,10.662Z"/>
  </g>
  <g>
    <path class="cls-2" d="M273.426,505.417h23.99v45.838h51.569v-45.838h23.99v113.578h-23.99v-49.747h-51.569v49.747h-23.99v-113.578Z"/>
    <path class="cls-2" d="M394.248,650.911v-17.587c2.276.57,4.728.977,7.442.977,6.741,0,9.894-2.85,12.257-9.118l2.715-7.328-31.082-81.744h24.253l19.612,58.784,19.524-58.784h24.165l-35.46,93.876c-5.341,14.167-14.709,22.39-30.557,22.39-4.815,0-9.456-.489-12.87-1.466Z"/>
    <path class="cls-2" d="M480.137,578.205c0-27.275,16.285-44.21,37.386-44.21,10.856,0,18.736,4.966,22.677,11.887v-41.279h23.202v114.393h-22.677v-10.666c-4.378,7.002-13.834,12.783-25.129,12.783-20.399,0-35.459-16.69-35.459-42.908ZM540.199,578.042v-.815c0-15.388-7.617-25.239-18.124-25.239-11.558,0-18.387,9.851-18.387,25.81s6.829,25.321,18.387,25.321c10.682,0,18.124-9.607,18.124-25.077Z"/>
    <path class="cls-2" d="M584.762,536.112h22.239v12.701c4.378-10.014,12.082-14.818,21.801-14.818,3.152,0,6.129.325,8.23.895v19.622c-2.539-.489-5.517-.895-8.58-.895-13.396,0-20.488,6.432-20.488,18.319v47.06h-23.202v-82.884Z"/>
    <path class="cls-2" d="M643.947,577.554c0-25.565,16.46-43.559,43.077-43.559s43.164,18.156,43.164,43.559c0,25.647-16.635,43.559-43.076,43.559-26.617,0-43.165-18.156-43.165-43.559ZM706.637,577.554c0-14.493-6.917-25.565-19.612-25.565-12.871,0-19.524,11.561-19.524,25.565,0,14.167,6.653,25.565,19.524,25.565,12.958,0,19.612-11.236,19.612-25.565Z"/>
    <path class="cls-2" d="M739.643,578.938h23.64c.7,15.47,10.156,23.855,26.267,23.855,13.571,0,21.977-6.024,21.977-15.388,0-12.05-13.922-14.003-30.732-18.4-19.524-5.129-38.349-12.132-38.349-33.952,0-22.39,19.875-31.753,43.777-31.753,27.58,0,44.391,12.051,45.441,36.801h-23.641c-.788-13.596-9.543-18.482-22.151-18.482-9.368,0-19.437,2.85-19.437,12.62,0,10.015,11.031,12.62,26.704,16.528,26.967,6.676,42.376,15.144,42.376,35.743,0,24.1-22.151,34.603-45.703,34.603-31.607,0-49.557-15.958-50.169-42.175Z"/>
    <path class="cls-2" d="M850.31,650.911v-17.587c2.276.57,4.728.977,7.442.977,6.741,0,9.894-2.85,12.257-9.118l2.715-7.328-31.082-81.744h24.253l19.612,58.784,19.524-58.784h24.165l-35.46,93.876c-5.341,14.167-14.709,22.39-30.557,22.39-4.815,0-9.456-.489-12.87-1.466Z"/>
    <path class="cls-2" d="M941.451,536.112h22.326v11.317c4.378-8.305,14.271-13.434,24.516-13.434,18.387,0,29.856,11.399,29.856,31.671v53.329h-23.202v-48.525c0-12.294-5.691-18.4-15.06-18.4-9.28,0-15.234,6.187-15.234,18.4v48.525h-23.202v-82.884Z"/>
    <path class="cls-2" d="M1033.381,577.391c0-24.832,15.06-43.396,41.852-43.396,22.238,0,36.598,12.457,38.786,32.242h-22.938c-1.139-9.526-7.355-14.248-15.761-14.248-11.819,0-18.386,10.34-18.386,25.321,0,14.899,6.566,25.81,18.474,25.81,9.019,0,15.234-6.27,15.935-17.342h22.939c-1.488,21.251-16.022,35.336-39.137,35.336-25.391,0-41.764-17.749-41.764-43.721Z"/>
  </g>
</svg>